<svg width="146.03mm" height="144.48mm" version="1.1" viewBox="0 0 146.03 144.48" xmlns="http://www.w3.org/2000/svg">
 <g transform="translate(-38.079 -47.155)">
  <circle cx="111.1" cy="120.9" r="70.732" fill="#f2f2f2" stroke-linecap="round" stroke-linejoin="round" stroke-width="2.265" style="paint-order:stroke fill markers"/>
  <path d="m109.8 191.11c-1.3135-0.728-1.3326-0.89865-1.3427-11.95l-9e-3 -10.335-2.4823-1.6252c-3.6161-2.3676-5.0253-4.4949-5.0253-7.5863 0-1.9282 0.82414-3.65 1.9753-4.1269 1.0357-0.42902 1.2989-0.15368 1.2989 1.359 0 2.0802 1.4746 4.3816 3.4677 5.4123l0.76568 0.39594v-9.0249l-2.05-1.249c-4.0708-2.4804-5.7045-4.7358-5.0768-7.009 0.48514-1.757 1.5452-1.9396 3.1992-0.55104 0.63223 0.53079 3.7236 2.6639 6.8696 4.7403 8.5425 5.638 9.7153 7.046 9.4355 11.328-0.15217 2.3296-0.80891 3.6861-2.5108 5.186l-1.2678 1.1174-0.13229-3.1357c-0.0807-1.9129-0.27331-3.3936-0.49392-3.7971-0.42362-0.77484-2.4313-2.9104-2.7362-2.9104-0.11522 0-0.20949 7.1955-0.20949 15.99 0 9.5412-0.10212 16.259-0.25322 16.656-0.26634 0.70053-1.5064 1.4916-2.3133 1.4757-0.26189-5e-3 -0.76071-0.16709-1.1085-0.35985zm-22.194-1.4698c-4.7571-1.7498-12.015-5.3291-16.099-7.9395-8.6789-5.5471-14.862-11.569-20.794-20.253-8.3169-12.175-12.658-26.215-12.638-40.869 0.0081-5.7961 0.28078-8.9283 1.1938-13.711 2.8599-14.982 9.6477-27.477 20.799-38.287 9.9488-9.6443 22.429-16.521 35.696-19.67 12.214-2.8983 25.488-2.1867 37.857 2.0296 7.8523 2.6765 16.796 7.6469 23.642 13.139 3.0121 2.4164 8.4743 7.789 10.897 10.718 7.7463 9.3654 12.871 20.741 15.197 33.734 0.70737 3.9515 0.99669 14.683 0.51148 18.971-0.71333 6.3047-2.9061 15.221-5.0942 20.714-2.5842 6.4875-7.1378 14.077-11.583 19.306-2.8777 3.385-8.0683 8.2827-11.558 10.906-6.962 5.233-14.603 9.161-23.109 11.88-2.4203 0.77356-2.7666 0.78482-3.4396 0.11181-0.43882-0.43881-0.52917-0.88194-0.52917-2.5953 0-1.2367 0.13277-2.2466 0.33073-2.5158 0.1819-0.24732 1.9176-1.0402 3.8571-1.7621 7.0414-2.6205 12.852-5.7509 18.434-9.9314 3.8344-2.8715 6.1716-5.0663 9.8465-9.2463 5.1066-5.8086 9.6587-13.252 12.061-19.722 1.274-3.4315 2.9722-9.7893 3.6395-13.626 0.70394-4.0468 0.97267-12.653 0.54115-17.33-1.1302-12.25-6.2152-24.998-13.615-34.131-2.61-3.2214-7.9893-8.4119-11.657-11.248-10.634-8.223-21.594-12.872-33.679-14.285-16.778-1.9626-33.785 3.122-48.299 14.44-2.6356 2.0553-9.0066 8.3553-11.218 11.093-5.37 6.6476-9.7005 15.391-11.991 24.209-1.7263 6.6465-2.2557 11.58-2.0442 19.05 0.16032 5.6636 0.46227 7.8397 1.9091 13.758 3.3953 13.89 11.494 26.664 22.474 35.449 6.6994 5.3602 13.036 8.8369 22.138 12.146 1.9219 0.6988 2.2152 1.1825 2.2152 3.6532 0 1.9-0.0626 2.1623-0.62462 2.6173-0.34354 0.27814-0.87933 0.50157-1.1906 0.49651-0.3113-5e-3 -2.1461-0.59038-4.0773-1.3007zm30.513-40.031c-0.056-0.1819-0.18029-0.68792-0.27611-1.1245-0.29832-1.3591-2.1404-2.6927-7.5429-5.4609-9.5377-4.887-11.081-6.0268-12.75-9.4176-0.84639-1.7193-0.87324-1.8728-0.79802-4.5628 0.04282-1.531 0.10235-4.0934 0.13229-5.6941l0.05445-2.9104-30.133-0.1368-1.2341-1.1594 0.0732-13.136c0.05942-10.663 0.14155-13.218 0.43632-13.573 0.33006-0.3975 1.7579-0.43733 15.677-0.43733h15.313v-12.641c0-11.013 0.05305-12.717 0.41188-13.229l0.41188-0.58804h13.031c10.834 0 13.118 0.0633 13.545 0.3754 0.49286 0.36025 0.51893 0.89156 0.64589 13.163l0.13229 12.788 15.301 0.13229c14.76 0.12761 15.314 0.15045 15.677 0.64588 0.55862 0.76418 0.55862 26.254 0 27.019-0.36216 0.49543-0.91654 0.51827-15.677 0.64588l-15.301 0.1323 0.0606 2.9104c0.0333 1.6007 0.0928 4.2226 0.13229 5.8264 0.0695 2.8242 0.0446 2.9711-0.78993 4.6663-0.47391 0.96266-1.3376 2.2407-1.9193 2.8401l-1.0576 1.0898-1.9172-1.2494c-1.0544-0.68716-1.9626-1.279-2.0182-1.3152-0.0556-0.0362 0.49993-0.72337 1.2345-1.5271 1.5882-1.7377 2.316-3.6009 2.0798-5.3241-0.18128-1.3226-1.1555-3.5401-1.6364-3.7247-0.17979-0.069-1.5309 0.2486-3.0024 0.70577l-2.6755 0.83122 0.0114 6.131 0.0114 6.131 2.5683 1.7292c3.6886 2.4836 4.9758 4.6536 4.272 7.2023-0.47245 1.7111-2.1745 3.251-2.4837 2.2471zm-9.808-18.256c-0.1049-2.8013-0.23891-5.1457-0.29781-5.2098-0.19256-0.20962-4.1786-1.38-4.8569-1.426-0.55186-0.0375-0.78202 0.19311-1.3891 1.3916-1.2898 2.5464-0.91534 4.5483 1.2921 6.9082 1.2227 1.3071 4.3641 3.4248 5.0848 3.4278 0.29468 1e-3 0.32405-0.89497 0.1669-5.0918zm-0.12764-14.439v-2.8637l-1.5828-0.29436c-3.7596-0.69916-6.8925-2.9861-6.8754-5.0186 9e-3 -1.106 0.34231-1.6722 1.276-2.1696 0.56223-0.29955 0.79442-0.2153 2.3812 0.86405 1.6329 1.1106 3.2265 1.7577 4.338 1.7612 0.40012 1e-3 0.46302-0.26925 0.46302-1.9914 0-2.9873-0.84871-4.62-2.966-5.7058-0.92919-0.47652-1.7458-0.50342-15.28-0.50342h-14.298v1.0065c0 1.2884 1.1882 3.1988 2.6465 4.2552 1.3839 1.0025 3.0498 1.3528 6.4328 1.3528h2.7033l0.83372 1.3891c3.3275 5.5439 12.06 10.433 19.2 10.75l0.7276 0.0323zm10.547 2.1839c5.7525-1.3148 12.416-5.7165 15.109-9.9807l0.91728-1.4525 3.4484-0.10935c3.9946-0.12669 5.2688-0.54452 6.7277-2.2061 1.1139-1.2687 1.9659-3.1406 1.7455-3.835-0.16224-0.51116-0.46048-0.52188-14.369-0.51619-13.278 5e-3 -14.272 0.0379-15.262 0.49734-2.3049 1.0705-3.2924 2.7996-3.3015 5.7807-5e-3 1.6802 0.0539 1.9182 0.47534 1.9182 1.1178 0 3.2772-0.87435 4.5836-1.856 0.77182-0.57994 1.5645-1.0544 1.7615-1.0544 0.19701 0 0.70623 0.34803 1.1316 0.7734 1.2 1.1999 0.99775 2.6544-0.58624 4.2169-1.4509 1.4313-3.1404 2.1337-6.1148 2.5424l-1.2568 0.17268v5.8568l1.6536-0.18167c0.9095-0.0999 2.4112-0.35482 3.3371-0.56646zm-4.8302-19.552c4.0393-1.8112 4.777-7.7846 1.3139-10.639-2.4413-2.0123-6.329-1.8947-8.5746 0.25932-1.0963 1.0516-1.5518 1.906-1.9123 3.5872-0.67419 3.1436 1.6324 6.6649 4.8914 7.4672 1.1403 0.28072 2.6988 0.0352 4.2817-0.67456z" fill="#030f21"/>
 </g>
</svg>
